<svg width="1440" height="960" viewBox="0 0 1440 960" fill="none" xmlns="http://www.w3.org/2000/svg">
  <rect width="1440" height="960" rx="42" fill="#141923"/>
  <circle cx="302" cy="156" r="250" fill="#74A7FF" fill-opacity="0.18"/>
  <circle cx="1110" cy="756" r="310" fill="#F3C27D" fill-opacity="0.16"/>
  <circle cx="892" cy="230" r="260" fill="#84E3C0" fill-opacity="0.12"/>
  <rect x="110" y="94" width="1220" height="772" rx="34" fill="#F8F5EF" fill-opacity="0.08" stroke="#FFFFFF" stroke-opacity="0.16" stroke-width="2"/>
  <rect x="154" y="142" width="260" height="676" rx="22" fill="#0F141D" stroke="#FFFFFF" stroke-opacity="0.12" stroke-width="2"/>
  <rect x="196" y="188" width="144" height="16" rx="8" fill="#9FC5FF"/>
  <rect x="196" y="226" width="176" height="10" rx="5" fill="#FFFFFF" fill-opacity="0.48"/>
  <rect x="196" y="250" width="128" height="10" rx="5" fill="#FFFFFF" fill-opacity="0.28"/>
  <rect x="196" y="322" width="176" height="92" rx="16" fill="#FFFFFF" fill-opacity="0.08"/>
  <rect x="196" y="442" width="176" height="92" rx="16" fill="#FFFFFF" fill-opacity="0.08"/>
  <rect x="196" y="562" width="176" height="92" rx="16" fill="#FFFFFF" fill-opacity="0.08"/>
  <rect x="468" y="142" width="778" height="164" rx="28" fill="#FFFFFF" fill-opacity="0.1" stroke="#FFFFFF" stroke-opacity="0.12" stroke-width="2"/>
  <rect x="516" y="190" width="254" height="18" rx="9" fill="#FFFFFF" fill-opacity="0.72"/>
  <rect x="516" y="228" width="506" height="12" rx="6" fill="#FFFFFF" fill-opacity="0.34"/>
  <rect x="516" y="254" width="372" height="12" rx="6" fill="#FFFFFF" fill-opacity="0.22"/>
  <rect x="1090" y="184" width="104" height="76" rx="20" fill="#F3C27D" fill-opacity="0.72"/>
  <rect x="468" y="354" width="356" height="464" rx="28" fill="#FFFFFF" fill-opacity="0.09" stroke="#FFFFFF" stroke-opacity="0.12" stroke-width="2"/>
  <rect x="872" y="354" width="374" height="464" rx="28" fill="#FFFFFF" fill-opacity="0.09" stroke="#FFFFFF" stroke-opacity="0.12" stroke-width="2"/>
  <path d="M530 730C586 640 640 676 686 584C722 512 744 484 780 442" stroke="#9FC5FF" stroke-width="12" stroke-linecap="round"/>
  <path d="M936 692C1008 608 1066 646 1124 528C1160 454 1182 438 1212 408" stroke="#F3C27D" stroke-width="12" stroke-linecap="round"/>
  <circle cx="530" cy="730" r="14" fill="#9FC5FF"/>
  <circle cx="686" cy="584" r="14" fill="#9FC5FF"/>
  <circle cx="780" cy="442" r="14" fill="#9FC5FF"/>
  <circle cx="936" cy="692" r="14" fill="#F3C27D"/>
  <circle cx="1124" cy="528" r="14" fill="#F3C27D"/>
  <circle cx="1212" cy="408" r="14" fill="#F3C27D"/>
  <rect x="526" y="402" width="190" height="14" rx="7" fill="#FFFFFF" fill-opacity="0.46"/>
  <rect x="930" y="402" width="210" height="14" rx="7" fill="#FFFFFF" fill-opacity="0.46"/>
  <rect x="526" y="440" width="118" height="10" rx="5" fill="#FFFFFF" fill-opacity="0.24"/>
  <rect x="930" y="440" width="142" height="10" rx="5" fill="#FFFFFF" fill-opacity="0.24"/>
</svg>
